<svg version="1.0" xmlns="http://www.w3.org/2000/svg"
 width="282.000000pt" height="283.000000pt" viewBox="0 0 282.000000 283.000000"
 preserveAspectRatio="xMidYMid meet">

	<g transform="translate(0.000000,283.000000) scale(0.100000,-0.100000)"
	fill="#000000" stroke="none">
		<path d="M1191 2804 c-514 -83 -946 -448 -1110 -939 -56 -167 -74 -280 -74
-455 0 -393 156 -753 441 -1021 475 -448 1195 -510 1738 -151 315 209 521 512
606 893 30 136 32 405 5 542 -113 559 -523 984 -1076 1114 -138 32 -387 40
-530 17z m474 -109 c259 -53 484 -175 671 -360 520 -518 506 -1365 -31 -1873
-244 -232 -551 -352 -896 -352 -215 0 -389 41 -578 135 -377 189 -642 547
-707 956 -24 150 -15 388 19 524 116 455 468 820 910 944 186 53 434 63 612
26z"/>
		<path d="M1344 2231 c-38 -23 -59 -77 -49 -128 6 -31 2 -40 -26 -69 -22 -23
-42 -34 -61 -34 -38 0 -68 -35 -68 -80 0 -33 -5 -40 -60 -77 l-60 -42 -61 51
c-50 42 -60 55 -56 76 9 47 -11 92 -49 108 -58 24 -118 -9 -130 -73 -10 -54 2
-81 47 -104 40 -20 43 -20 74 -3 l33 17 51 -42 c28 -24 51 -46 51 -49 -1 -9
-242 -172 -253 -172 -5 0 -20 14 -34 30 -40 48 -106 81 -172 87 -49 5 -68 1
-113 -20 -193 -88 -179 -390 22 -476 l50 -22 0 -50 c0 -38 -4 -51 -18 -55 -70
-23 -102 -65 -102 -134 0 -83 57 -140 139 -140 54 0 97 38 120 107 15 46 27
59 98 112 44 34 86 61 93 61 14 0 35 -17 237 -183 l131 -109 -14 -35 c-30 -71
15 -190 94 -250 172 -131 417 1 400 214 -3 32 -7 63 -9 69 -2 6 77 79 175 162
l180 151 50 -37 c111 -79 145 -113 156 -151 19 -71 94 -120 165 -107 37 7 91
61 101 102 16 61 -23 132 -86 160 -38 17 -40 20 -40 65 0 47 0 47 54 73 70 34
121 91 140 157 19 64 20 80 3 147 -18 69 -61 127 -116 160 -38 22 -58 27 -111
27 -76 -1 -111 -17 -179 -80 l-46 -43 -123 91 -122 92 37 33 c74 64 74 64 122
40 41 -20 47 -20 85 -7 121 42 79 221 -49 205 -55 -7 -95 -51 -95 -106 0 -37
-4 -42 -72 -94 l-71 -54 -68 47 c-63 42 -68 49 -69 82 0 42 -25 69 -61 69 -34
0 -102 69 -89 90 14 22 12 67 -5 100 -30 58 -112 77 -171 41z m-247 -542 l62
-52 1 -71 c0 -39 1 -82 3 -95 1 -19 -10 -33 -48 -63 -59 -45 -71 -47 -79 -13
-16 63 -78 84 -122 40 -36 -36 -30 -83 13 -110 18 -11 32 -23 33 -26 0 -9
-137 -99 -151 -99 -12 0 -139 88 -139 96 0 2 16 27 35 55 41 60 58 116 50 162
-6 31 -3 35 52 75 77 56 217 151 223 151 3 1 33 -22 67 -50z m829 -30 c65 -44
126 -87 134 -95 11 -11 14 -32 12 -77 -3 -56 0 -68 33 -121 19 -32 34 -60 33
-60 -2 -1 -28 -22 -58 -47 -30 -25 -61 -49 -68 -53 -7 -4 -43 12 -88 41 -65
41 -73 49 -58 58 34 19 64 54 64 75 0 12 -13 35 -29 51 -49 48 -102 35 -122
-31 l-12 -39 -58 40 c-33 22 -59 41 -59 43 0 2 7 23 16 47 9 25 14 66 12 96
l-3 53 60 50 c33 27 63 50 66 50 3 0 59 -36 125 -81z m-699 -279 c30 -36 95
-75 141 -85 31 -6 32 -8 32 -55 0 -43 -3 -48 -26 -54 -45 -12 -74 -50 -74 -98
1 -49 12 -67 60 -96 30 -19 32 -22 14 -28 -60 -21 -112 -48 -136 -71 -17 -16
-31 -22 -40 -17 -21 13 -323 267 -326 275 -2 4 16 23 40 42 55 45 282 217 286
217 2 0 15 -14 29 -30z m723 -219 c-1 -3 -44 -40 -97 -81 -53 -41 -130 -106
-170 -144 l-72 -68 -42 36 c-23 19 -64 43 -91 52 l-50 16 29 18 c35 22 59 48
67 77 10 33 -20 87 -60 109 -31 17 -34 22 -34 66 0 34 4 48 13 48 24 0 132 59
156 84 l23 24 164 -116 c90 -63 164 -118 164 -121z m-1255 53 c36 -25 65 -49
65 -52 -1 -11 -139 -114 -148 -110 -4 2 -26 14 -49 28 -42 24 -43 27 -43 76 0
52 0 52 48 77 26 13 50 25 54 26 4 0 37 -20 73 -45z m1550 22 l60 -25 3 -55
c2 -33 -1 -56 -7 -56 -6 0 -26 -13 -44 -30 l-34 -30 -82 59 -81 59 57 51 c31
28 59 51 62 51 4 0 33 -11 66 -24z"/>
	</g>
</svg>